<?xml version="1.0" encoding="utf-8"?>
<!-- Generator: Adobe Illustrator 16.0.0, SVG Export Plug-In . SVG Version: 6.00 Build 0)  -->
<!DOCTYPE svg PUBLIC "-//W3C//DTD SVG 1.1//EN" "http://www.w3.org/Graphics/SVG/1.1/DTD/svg11.dtd">
<svg version="1.1" id="Layer_1" xmlns="http://www.w3.org/2000/svg" xmlns:xlink="http://www.w3.org/1999/xlink" x="0px" y="0px"
	 width="603.474px" height="63.723px" viewBox="0 0 603.474 63.723" enable-background="new 0 0 603.474 63.723"
	 xml:space="preserve">
<g>
	<path fill="#000000" d="M598.472,46.34c-2.074,3.856-5.128,6.628-8.708,8.536c3.011-4.341,5.124-10.686,2.398-15.534
		c-2.793-4.967-10.666-6.182-15.582-3.938c-5.672,2.59-5.383,8.758-2.095,13.205c2.04,2.759,6.721,0.074,4.654-2.721
		c-3.765-5.091,2.258-7.063,6.008-5.529c4.237,1.732,2.813,6.683,1.22,9.758c-2.625,5.065-7.485,7.646-13.039,8.134
		c-0.066,0.006-0.123,0.025-0.187,0.035c-3.146-0.096-6.254-0.519-9.14-1.208c-9.896-2.361-18.934-7.273-27.62-12.559
		c18.616-2.48,34.681-12.293,46.508-26.792c2.175-2.667-1.617-6.502-3.812-3.812c-11.768,14.425-27.862,24.177-46.64,25.652
		c-1.319,0.104-2.636,0.166-3.951,0.203c-0.469-0.129-0.92-0.122-1.327,0.012c-6.294,0.073-12.547-0.567-18.75-1.675
		c0.423-4.051-0.109-8.183-1.722-11.833c-0.602-1.363-1.321-2.593-2.124-3.728c6.095,1.898,12.138,3.581,17.981,4.12
		c10.419,0.96,22.282,2.131,29.651-6.73c3.818-4.591,7.461-15.101,1.185-19.458c-2.856-1.983-5.554,2.688-2.721,4.655
		c0.657,0.457,0.648,3.548,0.587,4.289c-0.242,2.888-1.869,5.734-3.843,7.811c-4.291,4.514-9.664,4.534-15.544,4.458
		c-12.245-0.16-22.984-3.175-34.493-7c-17.192-5.714-34.856-7.796-48.686,5.92c-15.279-4.964-30.591-9.951-46.106-13.913
		c-17.197-4.392-35.525-6.098-52.163,1.233c-11.038,4.864-20.001,12.812-26.986,22.342c-4.077,5.141-7.156,11.461-10.337,16.571
		c-1.023,1.645-0.029,3.211,1.367,3.771c1.187,1.028,3.05,1.158,3.855-0.656c1.542-3.471,3.295-6.857,5.243-10.116
		c1.668-2.715,3.423-5.362,5.415-7.76c4.38-5.274,10.876-6.694,17.472-6.617c6.782,0.079,13.297,1.856,19.605,4.335
		c0.213,0.144,0.446,0.273,0.727,0.364c9.237,2.99,13.957,13.581,21.197,19.519c6.898,5.658,15.783,9.524,24.514,5.611
		c3.011-1.349,5.72-3.574,7.732-6.279c7.259-0.41,13.915-3.403,18.882-10.865c1.928-2.896-2.739-5.599-4.654-2.721
		c-3.028,4.549-6.97,6.892-11.325,7.813c0.781-2.714,0.864-5.6-0.049-8.43c-2.306-7.149-11.87-12.411-18.186-6.953
		c-2.629,2.272,1.197,6.071,3.812,3.812c2.079-1.796,6.081,0.274,7.478,1.743c1.7,1.789,2.304,4.325,2.075,6.712
		c-0.118,1.228-0.506,2.429-1.056,3.57c-4.884-0.189-9.987-1.583-14.726-3.274c-10.854-3.874-20.832-9.775-31.418-14.283
		c-0.902-0.441-1.837-0.847-2.843-1.172c-0.043-0.014-0.082-0.015-0.124-0.027c-0.436-0.172-0.864-0.361-1.303-0.526
		c-8.295-3.136-17.715-5.327-26.646-3.978c3.753-2.997,7.866-5.575,12.387-7.583c18.829-8.361,39.682-3.819,58.589,1.834
		c21.221,6.346,42.3,13.2,63.44,19.81c8.895,2.781,17.99,5.634,27.214,7.698c-2.211,5.551-6.875,10.699-13.434,10.425
		c-2.888-0.121-6.954-1.551-9.143-3.558c-2.77-2.541-2.644-5.86-1.854-9.236c0.79-3.375-4.406-4.815-5.198-1.433
		c-1.937,8.279,0.912,14.369,8.782,17.751c7.96,3.421,17.274,1.373,22.699-5.693c1.625-2.115,2.865-4.546,3.699-7.122
		c6.581,1.213,13.221,1.937,19.896,1.852c12.838,8.018,26.408,16.414,41.73,18.223c12.843,1.517,27.688-2.272,34.184-14.345
		C604.771,46.006,600.118,43.281,598.472,46.34z M413.123,48.683c-0.466,0.361-0.941,0.699-1.434,0.989
		c-7.142,4.205-14.873,0.464-20.575-4.348c-2.478-2.091-4.61-4.512-6.687-6.958c0.133,0.064,0.266,0.13,0.398,0.194
		C393.107,42.573,403.332,47.312,413.123,48.683z M466.899,26.456c-4.104-1.284-8.207-2.604-12.31-3.931
		c9.1-7.657,19.294-7.958,29.818-5.787c0.189,0.1,0.396,0.187,0.632,0.248c4.791,1.235,9.869,2.823,13.415,6.465
		c3.598,3.696,5.092,8.676,4.588,13.599C490.763,34.358,478.691,30.146,466.899,26.456z"/>
	<path fill="#000000" d="M280.396,30.707c-5.825-8.086-13.073-15.075-21.878-20.054c-15.275-8.639-32.715-9.148-49.624-5.785
		c-18.301,3.64-36.241,9.936-54.063,15.785c-13.832-13.759-31.52-11.679-48.726-5.96c-11.135,3.701-21.608,6.779-33.458,6.984
		c-5.86,0.101-11.571,0.426-16.074-3.917c-2.041-1.97-3.915-4.837-4.27-7.684c-0.113-0.912-0.313-4.369,0.509-4.94
		c2.83-1.965,0.138-6.64-2.722-4.655c-6.001,4.167-2.868,14.282,0.711,18.874c7.332,9.409,19.385,8.305,30.125,7.314
		c5.827-0.538,11.853-2.212,17.931-4.103c-0.637,0.913-1.215,1.891-1.719,2.952c-1.843,3.883-2.506,8.299-2.068,12.616
		c-5.308,0.917-10.648,1.518-16.022,1.639c-0.962,0.022-1.912,0-2.863-0.017c-0.347-0.093-0.721-0.099-1.11-0.007
		c-20.176-0.675-37.787-10.028-50.679-25.833c-2.194-2.689-5.988,1.145-3.813,3.812c10.834,13.28,25.36,22.948,42.341,26.154
		c1.384,0.261,2.769,0.468,4.154,0.646C58.396,49.812,49.363,54.72,39.471,57.08c-2.877,0.687-5.975,1.115-9.11,1.213
		c-0.073-0.012-0.139-0.034-0.215-0.041c-5.546-0.487-10.417-3.068-13.039-8.134c-1.367-2.642-2.846-7.273,0.192-9.445
		c1.024-0.732,3.32-0.901,4.521-0.883c2.115-0.438,3.037,0.444,2.768,2.646c0.949,1.365,0.864,2.516-0.255,3.453
		c-2.063,2.792,2.612,5.483,4.655,2.721c3.287-4.445,3.594-10.607-2.096-13.205c-4.929-2.25-12.785-1.034-15.581,3.938
		c-2.728,4.851-0.603,11.213,2.409,15.549c-3.586-1.907-6.642-4.688-8.72-8.551c-1.645-3.056-6.3-0.337-4.654,2.721
		C6.84,61.132,21.688,64.922,34.529,63.406c15.347-1.813,28.938-10.234,41.794-18.263c6.634,0.059,13.256-0.656,19.817-1.857
		c0.824,2.579,2.066,5.02,3.715,7.167c5.128,6.678,14.155,9.126,21.857,6.05c8.299-3.314,11.67-9.363,9.624-18.108
		c-0.79-3.376-5.989-1.947-5.198,1.433c1.688,7.212-2.668,11.419-9.606,12.554c-7.081,1.158-12.461-4.165-14.839-10.22
		c6.168-1.368,12.269-3.079,18.254-4.888c21.22-6.414,42.325-13.221,63.483-19.833c19.758-6.174,41.409-13.166,61.998-6.666
		c6.665,2.104,12.597,5.446,17.843,9.64c-8.892-1.346-18.376,0.899-26.58,4.001c-0.439,0.166-0.869,0.355-1.307,0.527
		c-0.041,0.011-0.078,0.013-0.119,0.026c-0.992,0.321-1.916,0.721-2.808,1.155c-10.301,4.382-20.019,10.084-30.531,13.97
		c-5.003,1.85-10.474,3.427-15.692,3.619c-0.363-0.724-0.662-1.468-0.858-2.225c-1.069-4.13,4.107-14.388,9.399-9.814
		c2.613,2.259,6.442-1.538,3.813-3.812c-6.24-5.393-15.56-0.326-18.051,6.63c-1.048,2.926-0.996,5.932-0.184,8.755
		c-4.354-0.924-8.297-3.266-11.325-7.816c-1.913-2.875-6.585-0.178-4.655,2.721c4.967,7.462,11.624,10.455,18.882,10.864
		c2.015,2.706,4.727,4.933,7.733,6.28c8.371,3.752,17.107,0.343,23.845-5.063c3.877-3.11,7.312-6.688,10.364-10.604
		c3.237-4.152,6.283-7.775,11.501-9.464c0.271-0.088,0.499-0.212,0.708-0.35c6.017-2.366,12.223-4.1,18.687-4.337
		c6.852-0.251,13.851,1.11,18.409,6.605c1.581,1.906,3.016,3.97,4.377,6.099c2.377,3.764,4.478,7.716,6.281,11.777
		c0.806,1.813,2.671,1.684,3.857,0.655c1.396-0.559,2.39-2.124,1.365-3.77C287.287,41.873,284.3,35.76,280.396,30.707z
		 M100.441,37.101c-0.501-4.674,0.752-9.424,4.026-13.088c3.586-4.013,8.911-5.724,13.965-7.027c0.233-0.06,0.438-0.146,0.627-0.244
		c10.547-2.177,20.764-1.874,29.878,5.827c-1.431,0.459-2.859,0.914-4.289,1.361C130.223,28.444,115.472,33.904,100.441,37.101z
		 M212.358,45.323c-5.666,4.794-13.472,8.575-20.574,4.348c-0.485-0.289-0.958-0.63-1.422-0.991
		c9.786-1.373,20.007-6.108,28.285-10.121c0.128-0.062,0.258-0.126,0.387-0.188C216.959,40.814,214.829,43.233,212.358,45.323z"/>
</g>
</svg>
